<svg xmlns:gliffy="http://www.gliffy.com" xmlns:x="http://ns.adobe.com/Extensibility/1.0/" xmlns:i="http://ns.adobe.com/AdobeIllustrator/10.0/" xmlns:graph="http://ns.adobe.com/Graphs/1.0/" xmlns:a="http://ns.adobe.com/AdobeSVGViewerExtensions/3.0/" xmlns="http://www.w3.org/2000/svg" xmlns:xlink="http://www.w3.org/1999/xlink" width="796" height="799"><rect stroke="#000000" stroke-width="0" fill="#ffffff" x="0" y="0" width="795" height="798"/><g transform='translate(-21.25,348.5) rotate(90 383.25 47.5)'><defs><linearGradient id='g0' x1='-50%' y1='50%' x2='100%' y2='50%'><stop stop-color='white' offset='0%'/><stop stop-color='#333333' offset='100%'/></linearGradient></defs><g transform='translate(4.0,-4.0)'><polygon points="0,28.5 719.0,28.5 719.0,0 766.5,47.5 719.0,95.0 719.0,66.5 0,66.5" stroke="#A8A8A8" stroke-width="0" stroke-opacity=".6" fill-opacity=".6" fill="#A8A8A8"/></g><polygon points="0,28.5 719.0,28.5 719.0,0 766.5,47.5 719.0,95.0 719.0,66.5 0,66.5" stroke="#333333" stroke-width="2" style="fill:url(#g0)"/><g ></g></g><g transform='translate(242.0,397.125) rotate(0 116.0 35.875)'><defs><linearGradient id='g1' x1='50%' y1='-25%' x2='50%' y2='100%'><stop stop-color='white' offset='0%'/><stop stop-color='#cccccc' offset='100%'/></linearGradient></defs><g transform='translate(4.0,4.0)'><rect width="232.0" height="71.75" stroke="#A8A8A8" stroke-width="0" stroke-opacity=".6" fill-opacity=".6" fill="#A8A8A8"/></g><rect width="232.0" height="71.75" stroke="#333333" stroke-width="2" style="fill:url(#g1)"/><g  transform='translate(0.0,41.875)'><text x='116.0' style='text-anchor: middle' y='-2.0'><tspan xml:space='preserve' font-size='14' font-family='Arial' fill='#000000' font-weight='bold' >Associate and Deblend</tspan></text></g></g><g transform='translate(243.75,519.2511645962735) rotate(0 115.25 32.7488354037265)'><defs><linearGradient id='g2' x1='50%' y1='-25%' x2='50%' y2='100%'><stop stop-color='white' offset='0%'/><stop stop-color='#cccccc' offset='100%'/></linearGradient></defs><g transform='translate(4.0,4.0)'><rect width="230.5" height="65.497670807453" stroke="#A8A8A8" stroke-width="0" stroke-opacity=".6" fill-opacity=".6" fill="#A8A8A8"/></g><rect width="230.5" height="65.497670807453" stroke="#333333" stroke-width="2" style="fill:url(#g2)"/><g  transform='translate(0.0,29.748835403726503)'><text x='115.25' style='text-anchor: middle' y='-2.0'><tspan xml:space='preserve' font-size='14' font-family='Arial' fill='#000000' font-weight='bold' >Multi-Epoch Object</tspan></text><text x='115.25' style='text-anchor: middle' y='15.600000000000001'><tspan xml:space='preserve' font-size='14' font-family='Arial' fill='#000000' font-weight='bold' >Characterization</tspan></text></g></g><g transform='translate(276.5,629.6875) rotate(0 80.5 32.3125)'><defs><linearGradient id='g3' x1='50%' y1='-25%' x2='50%' y2='100%'><stop stop-color='white' offset='0%'/><stop stop-color='#cccccc' offset='100%'/></linearGradient></defs><g transform='translate(4.0,4.0)'><rect width="161.0" height="64.625" stroke="#A8A8A8" stroke-width="0" stroke-opacity=".6" fill-opacity=".6" fill="#A8A8A8"/></g><rect width="161.0" height="64.625" stroke="#333333" stroke-width="2" style="fill:url(#g3)"/><g  transform='translate(0.0,29.3125)'><text x='80.5' style='text-anchor: middle' y='-2.0'><tspan xml:space='preserve' font-size='14' font-family='Arial' fill='#000000' font-weight='bold' >Single-Epoch Object</tspan></text><text x='80.5' style='text-anchor: middle' y='15.600000000000001'><tspan xml:space='preserve' font-size='14' font-family='Arial' fill='#000000' font-weight='bold' >Characterization</tspan></text></g></g><g transform='translate(311.6,397.125)'><path d='M-0.3022551241027415,-3.0000000000000004 Q0.0,-23.3125 -66.80000000000001,-23.3125 Q-133.60000000000002,-23.3125 -133.60000000000002,-46.625 ' stroke-dasharray='4,8' fill='none' stroke='#333333' stroke-width='3' /><g transform='translate(0.0,0.0) rotate(248.0)'><path d='M13.0,-7.0 L3.0,0 L13.0,7.0 M0,0z' fill='none' stroke='#333333' stroke-width='3.0' /></g></g><g transform='translate(358.0,397.125)'><path d='M0.0,-3.0 Q0.0,-24.3125 0.0,-24.3125 Q0.0,-24.3125 0.0,-48.625 ' stroke-dasharray='4,8' fill='none' stroke='#333333' stroke-width='3' /><g transform='translate(0.0,0.0) rotate(270.0)'><path d='M13.0,-7.0 L3.0,0 L13.0,7.0 M0,0z' fill='none' stroke='#333333' stroke-width='3.0' /></g></g><g transform='translate(404.4,397.125)'><path d='M0.2756420930425407,-3.0 Q0.0,-24.3125 66.80000000000001,-24.3125 Q133.60000000000002,-24.3125 133.60000000000002,-48.625 ' stroke-dasharray='4,8' fill='none' stroke='#333333' stroke-width='3' /><g transform='translate(0.0,0.0) rotate(290.0)'><path d='M13.0,-7.0 L3.0,0 L13.0,7.0 M0,0z' fill='none' stroke='#333333' stroke-width='3.0' /></g></g><g transform='translate(561.25,464.375) rotate(0 57.75 41.625)'><defs><linearGradient id='g7' x1='50%' y1='-25%' x2='50%' y2='100%'><stop stop-color='white' offset='0%'/><stop stop-color='#cccccc' offset='100%'/></linearGradient></defs><g transform='translate(4.0,4.0)'><path d="M0,0 Q0,-10.40625 57.75,-10.40625 Q115.5,-10.40625 115.5,0 L115.5,72.84375 Q115.5,83.25 57.75,83.25 Q0,83.25 0,72.84375 L0,0 Z" stroke="#A8A8A8" stroke-width="0" stroke-opacity=".6" fill-opacity=".6" fill="#A8A8A8"/></g><path d="M0,0 Q0,-10.40625 57.75,-10.40625 Q115.5,-10.40625 115.5,0 L115.5,72.84375 Q115.5,83.25 57.75,83.25 Q0,83.25 0,72.84375 L0,0 Z" stroke="#333333" stroke-width="2" style="fill:url(#g7)"/><path d="M0,0 Q0,10.40625 57.75,10.40625 Q115.5,10.40625 115.5,0" stroke="#333333" stroke-width="2" fill="none"/><path d="M0,5.203125 Q0,15.609375 57.75,15.609375 Q115.5,15.609375 115.5,5.203125" stroke="#333333" stroke-width="2" fill="none"/><path d="M0,10.40625 Q0,20.8125 57.75,20.8125 Q115.5,20.8125 115.5,10.40625 " stroke="#333333" stroke-width="2" fill="none"/><g  transform='translate(0.0,47.625)'><text x='57.75' style='text-anchor: middle' y='-2.0'><tspan xml:space='preserve' font-size='14' font-family='Arial' fill='#000000' font-weight='bold' >Objects</tspan></text></g></g><g transform='translate(564.25,621.375) rotate(0 57.75 41.625)'><defs><linearGradient id='g8' x1='50%' y1='-25%' x2='50%' y2='100%'><stop stop-color='white' offset='0%'/><stop stop-color='#cccccc' offset='100%'/></linearGradient></defs><g transform='translate(4.0,4.0)'><path d="M0,0 Q0,-10.40625 57.75,-10.40625 Q115.5,-10.40625 115.5,0 L115.5,72.84375 Q115.5,83.25 57.75,83.25 Q0,83.25 0,72.84375 L0,0 Z" stroke="#A8A8A8" stroke-width="0" stroke-opacity=".6" fill-opacity=".6" fill="#A8A8A8"/></g><path d="M0,0 Q0,-10.40625 57.75,-10.40625 Q115.5,-10.40625 115.5,0 L115.5,72.84375 Q115.5,83.25 57.75,83.25 Q0,83.25 0,72.84375 L0,0 Z" stroke="#333333" stroke-width="2" style="fill:url(#g8)"/><path d="M0,0 Q0,10.40625 57.75,10.40625 Q115.5,10.40625 115.5,0" stroke="#333333" stroke-width="2" fill="none"/><path d="M0,5.203125 Q0,15.609375 57.75,15.609375 Q115.5,15.609375 115.5,5.203125" stroke="#333333" stroke-width="2" fill="none"/><path d="M0,10.40625 Q0,20.8125 57.75,20.8125 Q115.5,20.8125 115.5,10.40625 " stroke="#333333" stroke-width="2" fill="none"/><g  transform='translate(0.0,38.625)'><text x='57.75' style='text-anchor: middle' y='-2.0'><tspan xml:space='preserve' font-size='14' font-family='Arial' fill='#000000' font-weight='bold' >Sources and</tspan></text><text x='57.75' style='text-anchor: middle' y='15.600000000000001'><tspan xml:space='preserve' font-size='14' font-family='Arial' fill='#000000' font-weight='bold' >ForcedSources</tspan></text></g></g><g transform='translate(474.0,552.0)'><line x1='0.0' y1='0.0' x2='85.03852971799591' y2='-44.83406724387177' stroke-dasharray='20, 32' stroke='#333333' stroke-width='3' /><g transform='translate(87.25,-46.0) rotate(512.2008768680004)'><path d='M13.0,-7.0 L3.0,0 L13.0,7.0 M0,0z' fill='none' stroke='#333333' stroke-width='3.0' /></g></g><g transform='translate(438.0,662.0)'><line x1='0.0' y1='0.0' x2='123.75' y2='0.0' stroke-dasharray='20, 32' stroke='#333333' stroke-width='3' /><g transform='translate(126.25,0.0) rotate(180.0)'><path d='M13.0,-7.0 L3.0,0 L13.0,7.0 M0,0z' fill='none' stroke='#333333' stroke-width='3.0' /></g></g><g transform='translate(294.0,273.5) rotate(0 64.0 37.5)'><defs><linearGradient id='g11' x1='50%' y1='-25%' x2='50%' y2='100%'><stop stop-color='white' offset='0%'/><stop stop-color='#cccccc' offset='100%'/></linearGradient></defs><g transform='translate(4.0,4.0)'><path d="M0,0 Q0,-9.375 64.0,-9.375 Q128.0,-9.375 128.0,0 L128.0,65.625 Q128.0,75.0 64.0,75.0 Q0,75.0 0,65.625 L0,0 Z" stroke="#A8A8A8" stroke-width="0" stroke-opacity=".6" fill-opacity=".6" fill="#A8A8A8"/></g><path d="M0,0 Q0,-9.375 64.0,-9.375 Q128.0,-9.375 128.0,0 L128.0,65.625 Q128.0,75.0 64.0,75.0 Q0,75.0 0,65.625 L0,0 Z" stroke="#333333" stroke-width="2" style="fill:url(#g11)"/><path d="M0,0 Q0,9.375 64.0,9.375 Q128.0,9.375 128.0,0" stroke="#333333" stroke-width="2" fill="none"/><path d="M0,4.6875 Q0,14.0625 64.0,14.0625 Q128.0,14.0625 128.0,4.6875" stroke="#333333" stroke-width="2" fill="none"/><path d="M0,9.375 Q0,18.75 64.0,18.75 Q128.0,18.75 128.0,9.375 " stroke="#333333" stroke-width="2" fill="none"/><g  transform='translate(0.0,34.5)'><text x='64.0' style='text-anchor: middle' y='-2.0'><tspan xml:space='preserve' font-size='14' font-family='Arial' fill='#000000' font-weight='bold' >Coadd Source</tspan></text><text x='64.0' style='text-anchor: middle' y='15.600000000000001'><tspan xml:space='preserve' font-size='14' font-family='Arial' fill='#000000' font-weight='bold' >Catalogs</tspan></text></g></g><g transform='translate(489.0,273.5) rotate(0 49.0 37.5)'><defs><linearGradient id='g12' x1='50%' y1='-25%' x2='50%' y2='100%'><stop stop-color='white' offset='0%'/><stop stop-color='#cccccc' offset='100%'/></linearGradient></defs><g transform='translate(4.0,4.0)'><path d="M0,0 Q0,-9.375 49.0,-9.375 Q98.0,-9.375 98.0,0 L98.0,65.625 Q98.0,75.0 49.0,75.0 Q0,75.0 0,65.625 L0,0 Z" stroke="#A8A8A8" stroke-width="0" stroke-opacity=".6" fill-opacity=".6" fill="#A8A8A8"/></g><path d="M0,0 Q0,-9.375 49.0,-9.375 Q98.0,-9.375 98.0,0 L98.0,65.625 Q98.0,75.0 49.0,75.0 Q0,75.0 0,65.625 L0,0 Z" stroke="#333333" stroke-width="2" style="fill:url(#g12)"/><path d="M0,0 Q0,9.375 49.0,9.375 Q98.0,9.375 98.0,0" stroke="#333333" stroke-width="2" fill="none"/><path d="M0,4.6875 Q0,14.0625 49.0,14.0625 Q98.0,14.0625 98.0,4.6875" stroke="#333333" stroke-width="2" fill="none"/><path d="M0,9.375 Q0,18.75 49.0,18.75 Q98.0,18.75 98.0,9.375 " stroke="#333333" stroke-width="2" fill="none"/><g  transform='translate(0.0,34.5)'><text x='49.0' style='text-anchor: middle' y='-2.0'><tspan xml:space='preserve' font-size='14' font-family='Arial' fill='#000000' font-weight='bold' >Level 1</tspan></text><text x='49.0' style='text-anchor: middle' y='15.600000000000001'><tspan xml:space='preserve' font-size='14' font-family='Arial' fill='#000000' font-weight='bold' >Catalog</tspan></text></g></g><g transform='translate(128.0,275.5) rotate(0 50.0 37.5)'><defs><linearGradient id='g13' x1='50%' y1='-25%' x2='50%' y2='100%'><stop stop-color='white' offset='0%'/><stop stop-color='#cccccc' offset='100%'/></linearGradient></defs><g transform='translate(4.0,4.0)'><path d="M0,0 Q0,-9.375 50.0,-9.375 Q100.0,-9.375 100.0,0 L100.0,65.625 Q100.0,75.0 50.0,75.0 Q0,75.0 0,65.625 L0,0 Z" stroke="#A8A8A8" stroke-width="0" stroke-opacity=".6" fill-opacity=".6" fill="#A8A8A8"/></g><path d="M0,0 Q0,-9.375 50.0,-9.375 Q100.0,-9.375 100.0,0 L100.0,65.625 Q100.0,75.0 50.0,75.0 Q0,75.0 0,65.625 L0,0 Z" stroke="#333333" stroke-width="2" style="fill:url(#g13)"/><path d="M0,0 Q0,9.375 50.0,9.375 Q100.0,9.375 100.0,0" stroke="#333333" stroke-width="2" fill="none"/><path d="M0,4.6875 Q0,14.0625 50.0,14.0625 Q100.0,14.0625 100.0,4.6875" stroke="#333333" stroke-width="2" fill="none"/><path d="M0,9.375 Q0,18.75 50.0,18.75 Q100.0,18.75 100.0,9.375 " stroke="#333333" stroke-width="2" fill="none"/><g  transform='translate(0.0,34.5)'><text x='50.0' style='text-anchor: middle' y='-2.0'><tspan xml:space='preserve' font-size='14' font-family='Arial' fill='#000000' font-weight='bold' >External</tspan></text><text x='50.0' style='text-anchor: middle' y='15.600000000000001'><tspan xml:space='preserve' font-size='14' font-family='Arial' fill='#000000' font-weight='bold' >Catalogs</tspan></text></g></g><g transform='translate(44.0,616.0) rotate(0 45.0 45.0)'><defs><linearGradient id='g14' x1='50%' y1='-25%' x2='50%' y2='100%'><stop stop-color='white' offset='0%'/><stop stop-color='#cccccc' offset='100%'/></linearGradient></defs><g transform='translate(4.0,4.0)'><path d="M11.25,0 L101.25,0 Q78.75,45.0 101.25,90.0 L11.25,90.0 Q-11.25,45.0 11.25,0 Z" stroke="#A8A8A8" stroke-width="0" stroke-opacity=".6" fill-opacity=".6" fill="#A8A8A8"/></g><path d="M11.25,0 L101.25,0 Q78.75,45.0 101.25,90.0 L11.25,90.0 Q-11.25,45.0 11.25,0 Z" stroke="#333333" stroke-width="2" style="fill:url(#g14)"/><g  transform='translate(0.0,51.0)'><text x='45.0' style='text-anchor: middle' y='-2.0'><tspan xml:space='preserve' font-size='14' font-family='Arial' fill='#000000' font-weight='bold' >Visits</tspan></text></g></g><g transform='translate(134.0,662.0)'><line x1='0.0' y1='0.0' x2='107.98424530114481' y2='-108.23022308087408' stroke-dasharray='20, 32' stroke='#333333' stroke-width='3' /><g transform='translate(109.75,-110.0) rotate(494.93481711627476)'><path d='M13.0,-7.0 L3.0,0 L13.0,7.0 M0,0z' fill='none' stroke='#333333' stroke-width='3.0' /></g></g><g transform='translate(282.5,50.875) rotate(0 76.5 33.125)'><defs><linearGradient id='g16' x1='50%' y1='-25%' x2='50%' y2='100%'><stop stop-color='white' offset='0%'/><stop stop-color='#cccccc' offset='100%'/></linearGradient></defs><g transform='translate(4.0,4.0)'><rect width="153.0" height="66.25" stroke="#A8A8A8" stroke-width="0" stroke-opacity=".6" fill-opacity=".6" fill="#A8A8A8"/></g><rect width="153.0" height="66.25" stroke="#333333" stroke-width="2" style="fill:url(#g16)"/><g  transform='translate(0.0,39.125)'><text x='76.5' style='text-anchor: middle' y='-2.0'><tspan xml:space='preserve' font-size='14' font-family='Arial' fill='#000000' font-weight='bold' >Coadd Creation</tspan></text></g></g><g transform='translate(649.5,272.5) rotate(0 63.5 37.5)'><defs><linearGradient id='g17' x1='50%' y1='-25%' x2='50%' y2='100%'><stop stop-color='white' offset='0%'/><stop stop-color='#cccccc' offset='100%'/></linearGradient></defs><g transform='translate(4.0,4.0)'><rect width="127.0" height="75.0" stroke="#A8A8A8" stroke-width="0" stroke-opacity=".6" fill-opacity=".6" fill="#A8A8A8"/></g><rect width="127.0" height="75.0" stroke="#333333" stroke-width="2" style="fill:url(#g17)"/><g  transform='translate(0.0,34.5)'><text x='63.5' style='text-anchor: middle' y='-2.0'><tspan xml:space='preserve' font-size='14' font-family='Arial' fill='#000000' font-weight='bold' >Level 1</tspan></text><text x='63.5' style='text-anchor: middle' y='15.600000000000001'><tspan xml:space='preserve' font-size='14' font-family='Arial' fill='#000000' font-weight='bold' >Reprocessing</tspan></text></g></g><g transform='translate(587.0,311.0)'><path d='M3.0,0.0 Q31.25,0.0 31.25,0.0 Q31.25,0.0 62.5,0.0 ' stroke-dasharray='4,8' fill='none' stroke='#333333' stroke-width='3' /><g transform='translate(0.0,0.0) rotate(0.0)'><path d='M13.0,-7.0 L3.0,0 L13.0,7.0 M0,0z' fill='none' stroke='#333333' stroke-width='3.0' /></g></g><g transform='translate(134.0,662.0)'><line x1='0.0' y1='0.0' x2='140.0' y2='0.0' stroke-dasharray='23, 0' stroke='#333333' stroke-width='3' /><g transform='translate(142.5,0.0) rotate(180.0)'><path d='M13.0,-7.0 L3.0,0 L13.0,7.0 M0,0z' fill='none' stroke='#333333' stroke-width='3.0' /></g></g><g transform='translate(474.0,433.0)'><line x1='0.0' y1='0.0' x2='85.33260280686733' y2='71.39575936849644' stroke-dasharray='23, 0' stroke='#333333' stroke-width='3' /><g transform='translate(87.25,73.0) rotate(219.918421384319)'><path d='M13.0,-7.0 L3.0,0 L13.0,7.0 M0,0z' fill='none' stroke='#333333' stroke-width='3.0' /></g></g><g transform='translate(283.5,150.5) rotate(0 75.5 37.5)'><defs><linearGradient id='g21' x1='50%' y1='-25%' x2='50%' y2='100%'><stop stop-color='white' offset='0%'/><stop stop-color='#cccccc' offset='100%'/></linearGradient></defs><g transform='translate(4.0,4.0)'><rect width="151.0" height="75.0" stroke="#A8A8A8" stroke-width="0" stroke-opacity=".6" fill-opacity=".6" fill="#A8A8A8"/></g><rect width="151.0" height="75.0" stroke="#333333" stroke-width="2" style="fill:url(#g21)"/><g  transform='translate(0.0,26.5)'><text x='75.5' style='text-anchor: middle' y='-2.0'><tspan xml:space='preserve' font-size='14' font-family='Arial' fill='#000000' font-weight='bold' >Coadd Source</tspan></text><text x='75.5' style='text-anchor: middle' y='15.600000000000001'><tspan xml:space='preserve' font-size='14' font-family='Arial' fill='#000000' font-weight='bold' >Detection and</tspan></text><text x='75.5' style='text-anchor: middle' y='33.2'><tspan xml:space='preserve' font-size='14' font-family='Arial' fill='#000000' font-weight='bold' >Characterization</tspan></text></g></g><g transform='translate(104.0,39.0) rotate(0 45.0 45.0)'><defs><linearGradient id='g22' x1='50%' y1='-25%' x2='50%' y2='100%'><stop stop-color='white' offset='0%'/><stop stop-color='#cccccc' offset='100%'/></linearGradient></defs><g transform='translate(4.0,4.0)'><path d="M11.25,0 L101.25,0 Q78.75,45.0 101.25,90.0 L11.25,90.0 Q-11.25,45.0 11.25,0 Z" stroke="#A8A8A8" stroke-width="0" stroke-opacity=".6" fill-opacity=".6" fill="#A8A8A8"/></g><path d="M11.25,0 L101.25,0 Q78.75,45.0 101.25,90.0 L11.25,90.0 Q-11.25,45.0 11.25,0 Z" stroke="#333333" stroke-width="2" style="fill:url(#g22)"/><g  transform='translate(0.0,51.0)'><text x='45.0' style='text-anchor: middle' y='-2.0'><tspan xml:space='preserve' font-size='14' font-family='Arial' fill='#000000' font-weight='bold' >Visits</tspan></text></g></g><g transform='translate(118.0,-463.0) rotate(0 45.0 45.0)'><defs><linearGradient id='g23' x1='50%' y1='-25%' x2='50%' y2='100%'><stop stop-color='white' offset='0%'/><stop stop-color='#cccccc' offset='100%'/></linearGradient></defs><g transform='translate(4.0,4.0)'><path d="M11.25,0 L101.25,0 Q78.75,45.0 101.25,90.0 L11.25,90.0 Q-11.25,45.0 11.25,0 Z" stroke="#A8A8A8" stroke-width="0" stroke-opacity=".6" fill-opacity=".6" fill="#A8A8A8"/></g><path d="M11.25,0 L101.25,0 Q78.75,45.0 101.25,90.0 L11.25,90.0 Q-11.25,45.0 11.25,0 Z" stroke="#333333" stroke-width="2" style="fill:url(#g23)"/><g  transform='translate(0.0,51.0)'><text x='45.0' style='text-anchor: middle' y='-2.0'><tspan xml:space='preserve' font-size='14' font-family='Arial' fill='#000000' font-weight='bold' >Images</tspan></text></g></g><g transform='translate(523.0,39.0) rotate(0 45.0 45.0)'><defs><linearGradient id='g24' x1='50%' y1='-25%' x2='50%' y2='100%'><stop stop-color='white' offset='0%'/><stop stop-color='#cccccc' offset='100%'/></linearGradient></defs><g transform='translate(4.0,4.0)'><path d="M11.25,0 L101.25,0 Q78.75,45.0 101.25,90.0 L11.25,90.0 Q-11.25,45.0 11.25,0 Z" stroke="#A8A8A8" stroke-width="0" stroke-opacity=".6" fill-opacity=".6" fill="#A8A8A8"/></g><path d="M11.25,0 L101.25,0 Q78.75,45.0 101.25,90.0 L11.25,90.0 Q-11.25,45.0 11.25,0 Z" stroke="#333333" stroke-width="2" style="fill:url(#g24)"/><g  transform='translate(0.0,51.0)'><text x='45.0' style='text-anchor: middle' y='-2.0'><tspan xml:space='preserve' font-size='14' font-family='Arial' fill='#000000' font-weight='bold' >Coadds</tspan></text></g></g><g transform='translate(194.0,84.0)'><path d='M0.0,0.0 Q44.25,0.0 44.25,0.0 Q44.25,0.0 85.5,0.0 ' stroke-dasharray='4,8' fill='none' stroke='#333333' stroke-width='3' /><g transform='translate(88.5,0.0) rotate(180.0)'><path d='M13.0,-7.0 L3.0,0 L13.0,7.0 M0,0z' fill='none' stroke='#333333' stroke-width='3.0' /></g></g><g transform='translate(435.5,84.0)'><path d='M0.0,0.0 Q43.75,0.0 43.75,0.0 Q43.75,0.0 84.5,0.0 ' stroke-dasharray='4,8' fill='none' stroke='#333333' stroke-width='3' /><g transform='translate(87.5,0.0) rotate(180.0)'><path d='M13.0,-7.0 L3.0,0 L13.0,7.0 M0,0z' fill='none' stroke='#333333' stroke-width='3.0' /></g></g><g transform='translate(359.0,225.5)'><path d='M0.0,0.0 Q0.0,24.0 0.0,24.0 Q0.0,24.0 0.0,45.0 ' stroke-dasharray='4,8' fill='none' stroke='#333333' stroke-width='3' /><g transform='translate(0.0,48.0) rotate(270.0)'><path d='M13.0,-7.0 L3.0,0 L13.0,7.0 M0,0z' fill='none' stroke='#333333' stroke-width='3.0' /></g></g><g transform='translate(568.0,129.0)'><path d='M0.0,0.0 Q0.0,44.0 -130.5,43.99001248439454' stroke-dasharray='4,8' fill='none' stroke='#333333' stroke-width='3' /><g transform='translate(-133.5,44.0) rotate(360.0)'><path d='M13.0,-7.0 L3.0,0 L13.0,7.0 M0,0z' fill='none' stroke='#333333' stroke-width='3.0' /></g></g><g transform='translate(44.0,507.0) rotate(0 45.0 45.0)'><defs><linearGradient id='g29' x1='50%' y1='-25%' x2='50%' y2='100%'><stop stop-color='white' offset='0%'/><stop stop-color='#cccccc' offset='100%'/></linearGradient></defs><g transform='translate(4.0,4.0)'><path d="M11.25,0 L101.25,0 Q78.75,45.0 101.25,90.0 L11.25,90.0 Q-11.25,45.0 11.25,0 Z" stroke="#A8A8A8" stroke-width="0" stroke-opacity=".6" fill-opacity=".6" fill="#A8A8A8"/></g><path d="M11.25,0 L101.25,0 Q78.75,45.0 101.25,90.0 L11.25,90.0 Q-11.25,45.0 11.25,0 Z" stroke="#333333" stroke-width="2" style="fill:url(#g29)"/><g  transform='translate(0.0,51.0)'><text x='45.0' style='text-anchor: middle' y='-2.0'><tspan xml:space='preserve' font-size='14' font-family='Arial' fill='#000000' font-weight='bold' >Coadds</tspan></text></g></g><g transform='translate(134.0,552.0)'><path d='M0.0,0.0 Q54.875,0.0 54.875,0.0 Q54.875,0.0 106.75,0.0 ' stroke-dasharray='4,8' fill='none' stroke='#333333' stroke-width='3' /><g transform='translate(109.75,0.0) rotate(180.0)'><path d='M13.0,-7.0 L3.0,0 L13.0,7.0 M0,0z' fill='none' stroke='#333333' stroke-width='3.0' /></g></g><g transform='translate(134.0,552.0)'><line x1='0.0' y1='0.0' x2='106.42656440962827' y2='-131.4072441113327' stroke-dasharray='4,8' stroke='#333333' stroke-width='3' /><g transform='translate(108.0,-133.35000000000002) rotate(489.0039698893376)'><path d='M13.0,-7.0 L3.0,0 L13.0,7.0 M0,0z' fill='none' stroke='#333333' stroke-width='3.0' /></g></g></svg>